<?xml version="1.0" encoding="iso-8859-1"?>
<!-- Generator: Adobe Illustrator 19.0.0, SVG Export Plug-In . SVG Version: 6.00 Build 0)  -->
<svg version="1.1" id="Capa_1" xmlns="http://www.w3.org/2000/svg" xmlns:xlink="http://www.w3.org/1999/xlink" x="0px" y="0px"
	 viewBox="0 0 512.002 512.002" style="enable-background:new 0 0 512.002 512.002;" xml:space="preserve">
<g>
	<g>
		<path d="M506.239,180.613c-4.822-3.77-11.45-4.231-16.746-1.169l-124.501,71.98L268.924,88.385C266.227,83.809,261.312,81,256,81
			s-10.227,2.809-12.924,7.385l-96.067,163.039l-124.501-71.98c-5.299-3.063-11.926-2.601-16.746,1.169
			c-4.821,3.769-6.869,10.088-5.176,15.968l19.196,66.66l141.556,81.84l84.958-72.092c5.598-4.75,13.813-4.75,19.41,0l84.958,72.092
			l141.556-81.84l19.195-66.66C513.108,190.701,511.061,184.382,506.239,180.613z"/>
	</g>
</g>
<g>
	<g>
		<path d="M356.527,376.344c-5.5,3.18-12.39,2.543-17.213-1.549l-83.313-70.696l-83.313,70.696
			c-4.835,4.102-11.724,4.722-17.213,1.549L31.753,304.816l33.211,115.335c1.85,6.425,7.729,10.85,14.414,10.85h353.244
			c6.686,0,12.564-4.425,14.414-10.85l33.211-115.335L356.527,376.344z"/>
	</g>
</g>
<g>
</g>
<g>
</g>
<g>
</g>
<g>
</g>
<g>
</g>
<g>
</g>
<g>
</g>
<g>
</g>
<g>
</g>
<g>
</g>
<g>
</g>
<g>
</g>
<g>
</g>
<g>
</g>
<g>
</g>
</svg>
