<?xml version="1.0" encoding="UTF-8" standalone="no"?>
<!-- Generator: Adobe Illustrator 19.0.0, SVG Export Plug-In . SVG Version: 6.00 Build 0)  -->

<svg
   xmlns:dc="http://purl.org/dc/elements/1.1/"
   xmlns:cc="http://creativecommons.org/ns#"
   xmlns:rdf="http://www.w3.org/1999/02/22-rdf-syntax-ns#"
   xmlns:svg="http://www.w3.org/2000/svg"
   xmlns="http://www.w3.org/2000/svg"
   xmlns:sodipodi="http://sodipodi.sourceforge.net/DTD/sodipodi-0.dtd"
   xmlns:inkscape="http://www.inkscape.org/namespaces/inkscape"
   version="1.1"
   id="Capa_1"
   x="0px"
   y="0px"
   viewBox="0 0 512.001 512.001"
   style="enable-background:new 0 0 512.001 512.001;"
   xml:space="preserve"
   inkscape:version="0.91 r13725"
   sodipodi:docname="crown.svg"><metadata
     id="metadata45"><rdf:RDF><cc:Work
         rdf:about=""><dc:format>image/svg+xml</dc:format><dc:type
           rdf:resource="http://purl.org/dc/dcmitype/StillImage" /></cc:Work></rdf:RDF></metadata><defs
     id="defs43" /><sodipodi:namedview
     pagecolor="#ffffff"
     bordercolor="#666666"
     borderopacity="1"
     objecttolerance="10"
     gridtolerance="10"
     guidetolerance="10"
     inkscape:pageopacity="0"
     inkscape:pageshadow="2"
     inkscape:window-width="1920"
     inkscape:window-height="1057"
     id="namedview41"
     showgrid="false"
     inkscape:zoom="1.3037256"
     inkscape:cx="243.61988"
     inkscape:cy="282.40987"
     inkscape:window-x="-8"
     inkscape:window-y="-8"
     inkscape:window-maximized="1"
     inkscape:current-layer="Capa_1" /><path
     style="fill:#FFAE39;"
     d="M506.239,180.613c-4.822-3.77-11.45-4.231-16.746-1.169l-124.501,71.98L268.924,88.385  C266.227,83.809,261.312,81,256,81s-10.227,2.809-12.924,7.385l-96.067,163.039l-124.501-71.98  c-5.299-3.063-11.926-2.601-16.746,1.169c-4.821,3.769-6.869,10.088-5.176,15.968l64.378,223.57  c1.85,6.425,7.729,10.85,14.414,10.85h353.244c6.686,0,12.564-4.425,14.414-10.85l64.378-223.57  C513.108,190.701,511.06,184.382,506.239,180.613z"
     id="path3" /><path
     style="fill:#FC9D26;"
     d="M506.239,180.613c-4.822-3.77-11.45-4.231-16.746-1.169l-124.501,71.98L268.924,88.385  C266.227,83.809,261.312,81,256,81v350h176.622c6.686,0,12.564-4.425,14.414-10.85l64.378-223.57  C513.108,190.701,511.06,184.382,506.239,180.613z"
     id="path5" /><path
     style="fill:#F8EB76;"
     d="M19.781,263.241l141.56,81.84l84.95-72.09c5.6-4.75,13.82-4.75,19.42,0l84.95,72.09l141.56-81.84  l-11.97,41.57l-123.72,71.53c-5.54,3.196-12.401,2.541-17.22-1.55l-83.31-70.69l-83.31,70.69c-4.84,4.11-11.73,4.73-17.22,1.55  l-123.71-71.52h-0.01L19.781,263.241z"
     id="path7" /><path
     style="fill:#FAD557;"
     d="M350.661,345.081l-84.95-72.09c-2.8-2.375-6.255-3.563-9.71-3.563V304.1l83.31,70.69  c4.819,4.091,11.68,4.746,17.22,1.55l123.72-71.53l11.97-41.57L350.661,345.081z"
     id="path9" /><g
     id="g11" /><g
     id="g13" /><g
     id="g15" /><g
     id="g17" /><g
     id="g19" /><g
     id="g21" /><g
     id="g23" /><g
     id="g25" /><g
     id="g27" /><g
     id="g29" /><g
     id="g31" /><g
     id="g33" /><g
     id="g35" /><g
     id="g37" /><g
     id="g39" /></svg>